<svg aria-hidden="true" style="position:absolute;width:0;height:0" xmlns="http://www.w3.org/2000/svg" overflow="hidden"><defs><symbol id="icon-Cosm-1" viewBox="0 0 29 32"><path d="M28.361 13.626a2.036 2.036 0 00-1.353-.807l-.011-.001a2.03 2.03 0 00-1.541.407l.005-.003-1.438 1.101-2.178 1.626-1.558-.621c2.778-1.247 4.72-4.026 4.72-7.253 0-4.387-3.583-7.956-7.988-7.956s-7.988 3.57-7.988 7.957c0 1.59.476 3.069 1.285 4.313l-3.177-.028c-.01 0-.018.005-.027.005a.58.58 0 00-.183.038l.004-.001c-.015.005-.03.008-.044.015l-.022.007-3.71 1.831-.002.001-2.172 1.044a.512.512 0 00-.074.041l.002-.001a2.044 2.044 0 00-.681 2.646l-.005-.011c.252.486.68.852 1.197 1.016l.014.004a2.032 2.032 0 001.593-.153l-.011.005 1.593-.847 2.598-1.342 1.557-.009-6.245 6.214-.002.002-1.536 1.53c-.348.343-.563.82-.563 1.347v.006a1.914 1.914 0 001.913 1.91h.003c.491 0 .98-.186 1.354-.557L5.198 25.6l1.998-1.491 1.033 1.029-3.559 3.544c-.348.343-.563.82-.563 1.347v.005a1.909 1.909 0 001.913 1.91h.004c.49 0 .981-.186 1.354-.557l5.15-5.132c.008-.007.018-.01.026-.018l5.928-6.493 3.983.567a.62.62 0 00.302-.038c.02-.007.037-.017.057-.027.022-.011.045-.017.066-.031l3.687-2.448c.014-.009.021-.024.034-.034.015-.012.033-.016.047-.029l1.458-1.367c.399-.374.647-.904.647-1.492 0-.459-.152-.883-.407-1.224l.004.005zM2.445 17.769a.812.812 0 01-.647.058l.006.002a.823.823 0 01-.246-1.444l.002-.002 1.508-.726.363 1.061.152.446-1.138.605zm4.013-2.097l-1.777.918-.293-.857-.211-.616 2.326-1.148-.046 1.703zm17.327-7.597a6.661 6.661 0 01-.687 2.937L18.3 8.832a2.137 2.137 0 00-.898-1.588l-.007-.004 1.68-5.577c2.728.868 4.71 3.413 4.71 6.412zm-13.528 0c0-3.712 3.034-6.733 6.764-6.733.29 0 .574.025.855.06l-1.644 5.454c-.022 0-.043-.006-.066-.006h-.001a2.148 2.148 0 00-2.148 2.142 2.148 2.148 0 002.148 2.142h.001c.797 0 1.486-.44 1.857-1.084l4.433 2.014a6.762 6.762 0 01-5.436 2.742c-3.73 0-6.764-3.02-6.764-6.732zm6.835.918a.923.923 0 01-.925.918h-.002a.923.923 0 01-.923-.918c0-.506.414-.918.924-.918s.925.412.925.918zM2.828 26.233a.696.696 0 01-.981.001.68.68 0 010-.968l1.104-1.1.978.973-1.1 1.096zm3.688 4.284a.696.696 0 01-.981.001.68.68 0 010-.968l1.105-1.101.977.973-1.101 1.096zm3.995-3.98l-.002.002-2.025 2.02-.978-.973 2.025-2.016a.587.587 0 00.103-.156c.008-.016.023-.029.03-.046.019-.047.022-.098.029-.147.004-.028.016-.055.016-.084 0-.04-.015-.08-.023-.121-.007-.037-.007-.074-.021-.11a.622.622 0 00-.105-.158c-.012-.014-.016-.031-.028-.044h-.001l-.001-.002-1.844-1.836c-.019-.02-.045-.028-.067-.044a.608.608 0 00-.097-.065l-.003-.002a.565.565 0 00-.103-.036l-.004-.001a.567.567 0 00-.116-.023h-.002l-.027-.001a.61.61 0 00-.086.006h.003a.613.613 0 00-.119.024.561.561 0 00-.11.053l.002-.001c-.023.013-.049.017-.07.033l-2.035 1.519-1.033-1.03 2.753-2.738 5.004 4.922-1.064 1.054zm7.826-8.052c-.018-.002-.035.004-.052.003l-.031-.001a.603.603 0 00-.105.009l.004-.001a.562.562 0 00-.214.08l.002-.001a.535.535 0 00-.095.071c-.015.013-.033.019-.046.034l-5.391 5.905L7.442 19.7l3.251-3.234a.613.613 0 00-.434-1.046h-.002l-2.546.015.032-1.844 3.562.03a7.952 7.952 0 005.713 2.411h.004c.502 0 .991-.052 1.468-.141a.62.62 0 00.148.097l2.766 1.102.175.871.205 1.016-3.446-.491zm4.637.205l-.359-1.788 1.66-1.24 1.086 1.443-2.387 1.584zm4.307-3.249l-.961.901-1.069-1.418.954-.731a.84.84 0 01.623-.164.826.826 0 01.713.815.82.82 0 01-.259.598z"/></symbol><symbol id="icon-Comp-1" viewBox="0 0 41 32"><path d="M2.073 31.932h33.168a2.073 2.073 0 002.073-2.073v-2.764a2.073 2.073 0 00-2.073-2.073h-.691V7.789l3.925-3.718a2.085 2.085 0 10-.963-.976l-.005-.013-2.957 2.803V4.291a2.073 2.073 0 00-2.073-2.073H4.837a2.073 2.073 0 00-2.073 2.073v20.73h-.691A2.073 2.073 0 000 27.094v2.764c0 1.145.928 2.073 2.073 2.073zM39.387 1.529a.69.69 0 110 1.382.69.69 0 110-1.382zM4.146 4.293a.69.69 0 01.691-.691h27.64a.69.69 0 01.691.691v2.902l-1.382 1.313V5.675a.692.692 0 00-.692-.692H6.219a.691.691 0 00-.692.691v17.275c0 .382.31.691.692.691h24.875a.691.691 0 00.692-.691V10.408l1.382-1.31v15.923H4.146V4.293zm6.219 8.983h-.006a2.073 2.073 0 101.442 3.562l-.001.001 2.402 1.205a.692.692 0 00.825-.159l5.106-5.744 5.019 3.761c.27.201.645.18.889-.051l4.362-4.132v10.54H6.91V6.366h23.493v3.449l-4.889 4.63-5.061-3.794a.69.69 0 00-.931.092l-.001.001-5.176 5.824-1.935-.968c.014-.083.023-.167.026-.251a2.073 2.073 0 00-2.073-2.073zm.691 2.073a.69.69 0 11-1.382 0 .69.69 0 111.382 0zm4.146 11.056h6.91v.691a.69.69 0 01-.69.691h-5.528a.69.69 0 01-.691-.691v-.691zm-13.819.691a.69.69 0 01.69-.691H13.82v.691c0 1.145.928 2.073 2.073 2.073h5.528a2.073 2.073 0 002.073-2.073v-.691h11.747a.69.69 0 01.691.691v2.764a.69.69 0 01-.691.691H2.074h-.001a.69.69 0 01-.691-.691v-2.764z"/></symbol><symbol id="icon-Clock-1" viewBox="0 0 31 32"><path d="M30.839 15.301C30.838 6.849 23.984-.002 15.531 0S.228 6.855.23 15.308c.002 6.788 4.422 12.542 10.54 14.545l.108.031a.667.667 0 00.529-.065.636.636 0 00.283-.357l3.865-12.25a1.913 1.913 0 10-.852-3.63l.011-.005L9.608 8.47a.638.638 0 00-.902.902l5.103 5.109a1.873 1.873 0 00.533 2.306l.004.003-3.683 11.673C3.385 25.782-.341 17.709 2.339 10.431S13.093-.573 20.371 2.108c7.278 2.681 11.004 10.754 8.323 18.032-1.345 3.581-4.003 6.406-7.374 7.938l-.088.036-.398-1.874a.639.639 0 00-1.049-.343l.001-.001-3.837 3.426a.637.637 0 00.227 1.083l.005.001 4.899 1.563a.637.637 0 00.818-.744l.001.004-.391-1.839c5.528-2.374 9.328-7.772 9.328-14.057v-.034.002zm-15.304-.637a.638.638 0 010 1.276.638.638 0 010-1.276zm2.1 14.864l2.184-1.948.603 2.84-2.787-.892z"/></symbol><symbol id="icon-Anten-1" viewBox="0 0 30 32"><path fill="var(--color1, #212121)" d="M29.859 22.098l-8.443-8.505.937-4.616c.225.09.485.144.758.146h.033a2.16 2.16 0 10-2.029-1.42l-.005-.015-4.96.606L8.059.161a.53.53 0 00-.376-.16.536.536 0 00-.373.155L5.798 1.66a.535.535 0 000 .754l.814.825c-1.143 2.062-1.816 4.522-1.816 7.139 0 4.106 1.656 7.824 4.336 10.525l-.001-.001a.49.49 0 00.146.097 2.986 2.986 0 00-.052.546v6.188h-6.4a2.669 2.669 0 00-2.667 2.666v1.067c0 .295.239.534.534.534h24.534a.534.534 0 00.533-.534v-1.067a2.67 2.67 0 00-2.666-2.666h-6.4v-2.742a14.64 14.64 0 003.047.32h.002a14.784 14.784 0 007.117-1.822l-.077.039.818.823a.534.534 0 00.376.16.536.536 0 00.373-.155l1.512-1.504a.535.535 0 000-.754zM22.366 6.233a1.067 1.067 0 11.752 1.822h-.004a1.066 1.066 0 01-.747-1.822h-.002zM21.11 9.737l-.598 2.946-1.175-1.183 1.774-1.763zm-.606-.902l-1.92 1.909-1.486-1.493 3.406-.416zM23.09 28.8a1.6 1.6 0 011.6 1.6v.534H1.224V30.4a1.6 1.6 0 011.6-1.6h20.267zm-7.467-2.134v1.067h-5.334v-1.067h5.334zM10.29 25.6v-4.053c0-1.294 1.196-2.346 2.666-2.346s2.667 1.053 2.667 2.346V25.6H10.29zm6.4-1.696v-2.357c0-1.882-1.675-3.413-3.733-3.413h-.058c-1.353 0-2.54.707-3.213 1.771l-.009.016a13.817 13.817 0 01-3.812-9.55c0-2.314.567-4.496 1.569-6.414l-.036.077L26 22.743c-1.823.947-3.979 1.502-6.266 1.502-1.079 0-2.128-.124-3.136-.357l.093.018zm11.289-.684L6.922 2.039l.754-.752 7.935 7.98c.004 0 .006.007.009.01l13.115 13.191-.757.752z"/><path fill="var(--color2, #2196f3)" d="M12.961 20.267h-.007a1.6 1.6 0 00-.003 3.2h.007a1.6 1.6 0 00.002-3.2zm.373 1.978a.534.534 0 11-.378-.912.533.533 0 01.373.911h.005z"/></symbol></defs></svg>